# xmcd
#
# Track frame offsets:
# 150
# 20937
# 42257
# 58647
# 76177
# 100440
# 113910
# 131037
# 153645
# 170687
# 197467
#
# Disc length: 3699 seconds
#
#
# Revision: 0
# Processed by: cddbd v1.4PL0 Copyright (c) Steve Scherf et al.
# Submitted via: FreeRIP 2.30 
#
DISCID=960e710b
DTITLE=Corey Stevens - Blue Drops of Rain
DYEAR=2003
DGENRE=Blues
TTITLE0=Gone Too Long
TTITLE1=Blue Drops of Rain
TTITLE2=Crosscut Saw
TTITLE3=I Got a Rich Man's Woman
TTITLE4=It's Over
TTITLE5=Back in Time
TTITLE6=I'll Play the Blues
TTITLE7=The Brothers
TTITLE8=Headshrinker
TTITLE9=Goin' Crazy
TTITLE10=Video of "It's Over"
EXTD=
EXTT0=
EXTT1=
EXTT2=
EXTT3=
EXTT4=
EXTT5=
EXTT6=
EXTT7=
EXTT8=
EXTT9=
EXTT10=
PLAYORDER=
